# xmcd
#
# Track frame offsets:
#	150
#	29753
#	63935
#	111348
#	170648
#	193355
#	203280
#	226395
#	252818
#	278670
#	303448
#
# Disc length: 4438 seconds
#
# Revision: 1
# Processed by: cddbd v1.5.1PL0 Copyright (c) Steve Scherf et al.
# Submitted via: CDex 1.50Beta5
#
DISCID=9a11540b
DTITLE=荻久保和明 東京混声合唱団 - 縄文  荻久保和明作品集
DYEAR=1900
DGENRE=
TTITLE0=東京混声合唱団 樋本英一指揮/透明〜混声合唱曲「縄文」
TTITLE1=東京混声合唱団 樋本英一指揮/曙〜混声合唱曲「縄文」
TTITLE2=東京混声合唱団 樋本英一指揮/行進〜混声合唱曲「縄文」
TTITLE3=東京混声合唱団 樋本英一指揮/波の墓〜混声合唱曲「縄文」
TTITLE4=東京混声合唱団 荻久保和明指揮/Kyrie Eleison 〜MASS No.3"CHORUS ANGELORUM"
TTITLE5=東京混声合唱団 荻久保和明指揮/Gloria〜MASS No.3"CHORUS ANGELORUM"
TTITLE6=東京混声合唱団 荻久保和明指揮/In Paradisum〜MASS No.3"CHORUS ANGELORUM"
TTITLE7=東京混声合唱団 岩城宏之指揮/ひらく〜混声合唱曲「季節へのまなざし」
TTITLE8=東京混声合唱団 岩城宏之指揮/のびる〜混声合唱曲「季節へのまなざし」
TTITLE9=東京混声合唱団 岩城宏之指揮/みのる〜混声合唱曲「季節へのまなざし」
TTITLE10=東京混声合唱団 岩城宏之指揮/ゆめみる〜混声合唱曲「季節へのまなざし」
EXTD=
EXTT0=
EXTT1=
EXTT2=
EXTT3=
EXTT4=
EXTT5=
EXTT6=
EXTT7=
EXTT8=
EXTT9=
EXTT10=
PLAYORDER=
